<?xml version="1.0" ?><svg xmlns="http://www.w3.org/2000/svg" xmlns:xlink="http://www.w3.org/1999/xlink" version="1.1" viewBox="0 0 512 512" style="enable-background:new 0 0 512 512;" xml:space="preserve"><g id="_x34_3_x2C__Customer_Service_x2C__customer_support_x2C__technical_Support_x2C__help_desk_x2C__representative_x2C__call_center_agent"><g><path id="XMLID_619_" style="fill:#FFFFFF;" d="M256,8.5c-62.13,0-112.5,50.37-112.5,112.5v25c8.141,0,213.226,0,225,0v-25    C368.5,58.857,318.122,8.5,256,8.5z"/><path id="XMLID_620_" style="fill:#FFFFFF;" d="M174.87,196H143.5c-8.28,0-15-6.72-15-15v-30c0-8.28,6.72-15,15-15h30l17.833,26.5    L174.87,196z"/><path id="XMLID_621_" style="fill:#FFFFFF;" d="M383.5,151v30c0,8.28-6.72,15-15,15c-11.781,0-24.591,0-31.37,0l-12.463-36.167    L338.5,136h30C376.78,136,383.5,142.72,383.5,151z"/><rect id="XMLID_623_" x="226" y="257.87" style="fill:#FFFFFF;" width="60" height="45.63"/><path id="XMLID_625_" style="fill:#FFFFFF;" d="M338.15,113.5L278.5,66l-104.65,47.5c-0.492,5.063-0.35,3.269-0.35,67.5    c0,45.509,36.889,82.5,82.5,82.5c45.651,0,82.5-37.04,82.5-82.5v-45C338.425,122.343,338.701,119.166,338.15,113.5z"/><path id="XMLID_628_" style="fill:#FFFFFF;" d="M115.57,318.54C84.67,321.35,61,347.26,61,378.3v125.2h56.25L151,461.167    L121.49,318.14C121.389,318.147,115.172,318.567,115.57,318.54z"/><path id="XMLID_629_" style="fill:#FFFFFF;" d="M396.43,318.54c-0.101-0.007-6.318-0.427-5.92-0.4    c0.33,1.74-20.51,89.027-20.51,89.027l24.75,96.333H451V378.3C451,347.26,427.33,321.35,396.43,318.54z"/><path id="XMLID_630_" style="fill:#CDDCF9;" d="M391,323.5V476H121V323.5c0-16.441,13.31-30,30-30c49.548,0,84.553,0,135,0h75    C377.702,293.5,391,307.072,391,323.5z"/><circle id="XMLID_632_" style="fill:#FFFFFF;" cx="256" cy="379.75" r="30"/><path id="XMLID_633_" style="fill:#CDDCF9;" d="M338.15,113.5h-11.11c-20.524,0-39.321-11.563-48.54-30    c-9.19,18.39-27.98,30-48.54,30h-56.11c3.78-42.05,39.12-75,82.15-75C298.866,38.5,334.374,71.283,338.15,113.5z"/><path id="XMLID_634_" style="fill:#FFFFFF;" d="M394.75,466c10.36,0,18.75,8.39,18.75,18.75c0,10.359-8.39,18.75-18.75,18.75    h-277.5c-10.36,0-18.75-8.39-18.75-18.75c0-10.359,8.39-18.75,18.75-18.75H121h270H394.75z"/><g><path style="fill:#487FE9;" d="M440.84,332.78c-19.356-21.209-43.772-21.581-44.48-21.78c-5.16-14.55-19.06-25-35.36-25h-67.5     v-23.19c14.24-6.56,26.48-16.72,35.56-29.31h17.44c12.13,0,22-9.87,22-22v-8c12.406,0,22.5-10.094,22.5-22.5v-30     c0-9.777-6.271-18.114-15-21.21V121C376,54.832,322.168,1,256,1S136,54.832,136,121v8.79c-8.729,3.096-15,11.433-15,21.21v30     c0,12.406,10.094,22.5,22.5,22.5h25.348c6.703,25.907,24.864,47.899,49.652,59.31V286H151c-16.269,0-30.188,10.431-35.352,25.001     C78.821,314.332,53.5,344.435,53.5,378.3v125.2c0,4.14,3.36,7.5,7.5,7.5h390c4.14,0,7.5-3.36,7.5-7.5V378.3     C458.5,361.41,452.23,345.25,440.84,332.78z M394.705,458.5c-0.987,0-1.957,0-2.937,0.001     C392.97,458.495,393.916,458.491,394.705,458.5z M353.5,211.5c0,3.86-3.14,7-7,7h-8.69c2.244-4.864,4.015-9.898,5.331-15H353.5     V211.5z M376,151v30c0,4.136-3.364,7.5-7.5,7.5h-22.81c0.54-6.662,0.216-8.182,0.31-45h22.5C372.636,143.5,376,146.864,376,151z      M151,121c0-57.897,47.102-105,105-105s105,47.103,105,105v7.5h-15v-15c0-32.999-34.158-82.5-90-82.5     c-56.067,0-90,49.843-90,82.5v15h-15V121z M329.49,106h-2.45c-17.83,0-33.86-9.91-41.83-25.85c-1.27-2.54-3.87-4.15-6.71-4.15     s-5.44,1.61-6.71,4.15c-7.97,15.94-24,25.85-41.83,25.85h-47.45c6.97-34.19,37.27-60,73.49-60S322.52,71.81,329.49,106z      M143.5,188.5c-4.136,0-7.5-3.364-7.5-7.5v-30c0-4.136,3.364-7.5,7.5-7.5h22.519c-0.008,39.893-0.157,39.728,0.291,45H143.5z      M181,181c0-18.228,0-42.154,0-60h48.96c19.29,0,36.98-8.78,48.54-23.53c11.56,14.75,29.25,23.53,48.54,23.53H331     c0,17.847,0,41.781,0,60c0,13.146-3.462,26.057-10.09,37.5H263.5c-4.14,0-7.5,3.36-7.5,7.5s3.36,7.5,7.5,7.5h45.99     C295.88,247.37,276.93,256,256,256C214.693,256,181,222.415,181,181z M233.5,268.15c14.692,3.801,30.301,3.802,45,0V286h-45     V268.15z M151,301h210c12.41,0,22.5,10.09,22.5,22.5v135c14.933,0.098-236.558-0.036-255-0.018V323.5     C128.5,311.09,138.59,301,151,301z M120.497,458.501c-2.602,0.012-4.088,0.031-4.982,0.057     C116.734,458.484,118.14,458.489,120.497,458.501z M93.54,496H68.5V378.3c0-27.006,19.872-48.461,45-51.974V458.77     c-12.7,1.82-22.5,12.78-22.5,25.98C91,488.77,91.91,492.59,93.54,496z M394.75,496h-277.5c-6.2,0-11.25-5.05-11.25-11.25     s5.05-11.25,11.25-11.25h277.5c6.2,0,11.25,5.05,11.25,11.25S400.95,496,394.75,496z M443.5,496h-25.04     c1.63-3.41,2.54-7.23,2.54-11.25c0-14.07-11.085-25.466-24.822-26.21c0.798,0.039,1.499,0.108,2.322,0.229V326.33     c25.84,3.69,45,25.56,45,51.97V496z M394.814,458.501c0.419,0.005,0.801,0.015,1.156,0.029     C395.587,458.513,395.202,458.502,394.814,458.501z"/><path style="fill:#487FE9;" d="M293.5,158.5h7.5c4.143,0,7.5-3.357,7.5-7.5s-3.357-7.5-7.5-7.5h-7.5c-4.143,0-7.5,3.357-7.5,7.5     S289.357,158.5,293.5,158.5z"/><path style="fill:#487FE9;" d="M218.5,143.5H211c-4.143,0-7.5,3.357-7.5,7.5s3.357,7.5,7.5,7.5h7.5c4.143,0,7.5-3.357,7.5-7.5     S222.643,143.5,218.5,143.5z"/><path style="fill:#487FE9;" d="M256,417.25c20.68,0,37.5-16.82,37.5-37.5s-16.82-37.5-37.5-37.5s-37.5,16.82-37.5,37.5     S235.32,417.25,256,417.25z M256,357.25c12.41,0,22.5,10.09,22.5,22.5s-10.09,22.5-22.5,22.5c-12.41,0-22.5-10.09-22.5-22.5     S243.59,357.25,256,357.25z"/></g></g></g><g id="Layer_1"/></svg>