<?xml version="1.0" ?><svg xmlns="http://www.w3.org/2000/svg" xmlns:xlink="http://www.w3.org/1999/xlink" version="1.1" viewBox="0 0 512 512" style="enable-background:new 0 0 512 512;" xml:space="preserve"><g id="_x31_7_x2C__Worldwide_x2C__globe_x2C__internet_x2C__global_x2C__connection_x2C__communications"><g><path id="XMLID_290_" style="fill:#CDDCF9;" d="M485.868,348.34l-198.53-337.9c-48.361-6.117-99.444,1.91-145.67,26.09    L36.398,142.1c-7.62,14.67-13.81,30.19-18.39,46.39l51.263,209.333L390.948,463.6l0.01,0.01c42.39-27.57,75.81-67.77,94.92-115.27    H485.868z"/><path id="XMLID_293_" style="fill:#FFFFFF;" d="M390.948,463.6c-0.31-3.61-0.8-7.17-1.59-10.64c-2.65-11.64-3.36-24.88-8.43-35.38    c-5.15-10.68-26.25-10.56-33.57-19.72c-7.36-9.22-5.07-26.64-14.28-34c-9.17-7.32-18.25-16.54-28.92-21.69    c-10.51-5.07-23.78-4.6-35.42-7.24c-11.27-2.57-23-11.45-35.05-11.45s-21.07,20.82-32.34,23.38c-11.64,2.64-26.46-7.34-36.96-2.27    c-10.67,5.15-15.75,18.42-24.92,25.74c-1.5,1.2-2.86,2.48-4.1,3.82l6.65,101.48c78.173,40.734,173.753,36.909,248.94-12.02    L390.948,463.6z"/><path id="XMLID_294_" style="fill:#FFFFFF;" d="M143.328,188.49H18.008c-16.383,57.921-11.78,123.473,18.54,181.66l32.71-15.27    c7.09-9.83,12.74-20.78,16.65-32.52c1.09-1.834,12.256-52.538,68.36-73.57c12.168-4.563,20.21-16.201,20.21-29.16    C174.478,202.442,160.528,188.49,143.328,188.49z"/><path id="XMLID_295_" style="fill:#FFFFFF;" d="M475.828,141.83L370.358,36.35c-25.41-13.24-53.4-22.2-83.02-25.91l-1.12,2.98    c-9.15,24.4-3.2,51.9,15.23,70.33c18.225,18.225,24.21,45.241,15.59,69.35l-7.66,21.45c-10.09,28.27-9.29,59.3,2.26,87.01    c11.409,27.383,40.197,43.487,69.7,38.57c24.52-4.098,49.231,5.86,64.09,25.68c9.922,13.216,24.743,21.123,40.44,22.53h0.01    c11.49-28.53,17.81-59.71,17.81-92.35C503.688,214.81,493.628,175.99,475.828,141.83z"/><path id="XMLID_297_" style="fill:#FFFFFF;" d="M481.718,30.46c-31.624-31.624-83.482-28.613-111.36,5.89    c-23.87,29.45-22.1,72.77,5.3,100.17c3.29,3.29,6.81,6.22,10.51,8.76h85.04c1.57-1.08,3.11-2.23,4.62-3.45v-0.01    C510.404,113.884,513.276,62.019,481.718,30.46z"/><path id="XMLID_299_" style="fill:#FFFFFF;" d="M439.038,101.55l-20.7-0.01l-0.01,0.01c-18.48,4.61-32.16,21.33-32.16,41.24v2.49    c25.52,17.61,59.52,17.61,85.04,0v-2.49C471.208,123.054,457.68,106.199,439.038,101.55z"/><path id="XMLID_300_" style="fill:#FFFFFF;" d="M428.688,63.46c11.29,0,20.45,9.16,20.45,20.45c0,7.52-4.06,14.09-10.1,17.64    c-6.378,3.756-14.354,3.747-20.7-0.01c-6.04-3.54-10.1-10.11-10.1-17.63C408.238,72.62,417.398,63.46,428.688,63.46z"/><path id="XMLID_304_" style="fill:#FFFFFF;" d="M136.718,30.46c-29.29-29.29-76.77-29.29-106.06,0    c-29.21,29.212-29.367,76.693,0,106.06c3.29,3.29,6.81,6.22,10.51,8.76h85.04c1.57-1.08,3.11-2.23,4.62-3.45v-0.01    C165.404,113.884,168.276,62.019,136.718,30.46z"/><path id="XMLID_307_" style="fill:#FFFFFF;" d="M94.038,101.55l-20.7-0.01l-0.01,0.01c-18.48,4.61-32.16,21.33-32.16,41.24v2.49    c25.52,17.61,59.52,17.61,85.04,0v-2.49C126.208,123.054,112.68,106.198,94.038,101.55z"/><circle id="XMLID_308_" style="fill:#FFFFFF;" cx="83.688" cy="83.91" r="20.45"/><path id="XMLID_310_" style="fill:#FFFFFF;" d="M136.718,373.81c-29.29-29.29-76.77-29.29-106.06,0    c-29.21,29.213-29.367,76.693,0,106.06c3.29,3.29,6.81,6.22,10.51,8.76h85.04c1.57-1.08,3.11-2.23,4.62-3.45v-0.01    c2.03-1.64,4-3.41,5.89-5.3C166.008,450.58,166.008,403.1,136.718,373.81z"/><path id="XMLID_318_" style="fill:#FFFFFF;" d="M94.038,444.9l-20.7-0.01l-0.01,0.01c-18.48,4.61-32.16,21.33-32.16,41.24v2.49    c25.52,17.61,59.52,17.61,85.04,0v-2.49C126.208,466.407,112.683,449.549,94.038,444.9z"/><circle id="XMLID_320_" style="fill:#FFFFFF;" cx="83.688" cy="427.26" r="20.45"/><g><path style="fill:#487FE9;" d="M428.688,1.029c-22.074,0-43.901,8.734-60.132,26.013C297.802-7.717,214.237-7.685,143.477,27.208     C111.458-7.07,57.624-7.618,24.851,25.153c-32.838,32.839-32.208,86.804,2.226,118.789     c-33.543,68.519-35.504,151.815,0.162,224.416C-6.946,400.464-7.3,454.175,25.351,486.827     c32.465,32.461,86.236,32.419,118.469-1.888c94.192,46.273,212.622,31.423,292.681-48.636     c79.983-79.983,94.952-198.403,48.636-292.681C539.847,92.239,502.739,1.029,428.688,1.029z M376.152,41.113     c13.735-16.787,32.993-25.092,52.536-25.092c59.691,0,89.751,72.12,48.477,114.401c-3.423-13.504-12.364-24.98-24.808-31.675     c2.707-4.303,4.279-9.387,4.279-14.835c0-15.41-12.537-27.947-27.948-27.947s-27.948,12.537-27.948,27.947     c0,5.434,1.564,10.507,4.258,14.803c-12.34,6.611-21.344,18.139-24.787,31.721C356.34,105.796,354.981,67.32,376.152,41.113z      M417.609,109.566c7.054,3.058,15.086,3.063,22.15,0.003c13.264,4.412,23.25,16.657,23.911,31.641     c-21.418,12.98-48.543,12.986-69.962,0.011C394.35,126.669,403.882,114.112,417.609,109.566z M415.739,83.912     c0-7.139,5.809-12.947,12.948-12.947c7.14,0,12.948,5.809,12.948,12.947c0,7.14-5.809,12.948-12.948,12.948     C421.548,96.86,415.739,91.052,415.739,83.912z M35.458,35.761c26.319-26.319,69.14-26.319,95.459,0     c26.058,26.058,26.299,68.285,0.756,94.664c-3.54-14.076-12.896-25.264-24.816-31.677c2.706-4.303,4.279-9.387,4.279-14.835     c0-15.41-12.537-27.947-27.948-27.947S55.239,68.502,55.239,83.912c0,5.434,1.564,10.507,4.258,14.803     c-12.339,6.611-21.343,18.138-24.786,31.719C9.159,104.057,9.397,61.822,35.458,35.761z M72.109,109.566     c7.054,3.058,15.086,3.063,22.15,0.003c13.264,4.412,23.25,16.657,23.911,31.641c-21.419,12.98-48.542,12.98-69.961,0.001     C48.855,126.663,58.385,114.111,72.109,109.566z M70.239,83.912c0-7.139,5.809-12.947,12.948-12.947     c7.14,0,12.948,5.809,12.948,12.947c0,7.14-5.809,12.948-12.948,12.948C76.048,96.86,70.239,91.052,70.239,83.912z      M23.818,195.99h119.509c13.053,0,23.65,10.564,23.65,23.64c0,9.58-5.862,18.583-15.343,22.138     c-33.962,12.732-60.02,39.772-71.488,74.18c-0.98,2.413-4.394,16.234-15.39,32.288c-8.881,2.082-17.482,5.644-25.403,10.693     C15.91,309.562,9.396,252.003,23.818,195.99z M48.708,486.212c0.646-14.548,10.177-27.101,23.901-31.647     c7.053,3.058,15.086,3.063,22.15,0.003c13.26,4.411,23.244,16.648,23.91,31.625C97.409,499.056,70.28,499.306,48.708,486.212z      M70.739,428.912c0-7.139,5.809-12.947,12.948-12.947c7.14,0,12.948,5.809,12.948,12.947c0,7.14-5.809,12.948-12.948,12.948     C76.548,441.86,70.739,436.052,70.739,428.912z M132.166,475.425c-3.423-13.506-12.364-24.982-24.809-31.677     c2.706-4.303,4.279-9.387,4.279-14.835c0-15.41-12.537-27.947-27.948-27.947s-27.948,12.537-27.948,27.947     c0,5.434,1.564,10.507,4.258,14.803c-12.339,6.611-21.343,18.138-24.786,31.719c-25.553-26.377-25.315-68.612,0.747-94.674     c26.112-26.112,68.939-26.52,95.459,0C157.333,406.677,157.881,448.838,132.166,475.425z M153.249,472.824     c19.301-30.277,16.911-70.477-7.172-98.29c8.714-7.961,13.748-19.413,21.572-23.19c3.28-1.583,8.809-0.254,14.661,1.15     c6.399,1.537,13.653,3.278,20.7,1.68c7.461-1.695,13.088-7.743,18.529-13.593c3.979-4.277,8.933-9.601,12.148-9.601     c9.881,0,21.337,8.516,33.392,11.265c11.957,2.711,24.754,2.308,33.817,6.679c9.591,4.631,18.395,13.53,27.498,20.795     c6.188,4.945,4.632,22.211,13.104,32.824c4.721,5.906,12.189,8.561,19.411,11.127c5.547,1.972,11.835,4.206,13.265,7.171     c4.497,9.315,5.179,21.962,7.871,33.784c0.362,1.589,0.661,3.274,0.913,5.061C311.316,504.434,224.411,506.618,153.249,472.824z      M396.514,450.569c-2.5-11.396-3.295-24.782-8.83-36.247c-4.107-8.516-13.481-11.847-21.751-14.786     c-5.243-1.863-10.664-3.789-12.714-6.355c-5.836-7.309-3.668-25.756-15.463-35.182c-9.165-7.315-18.585-16.91-30.34-22.584     c-11.939-5.759-25.751-5.244-37.011-7.797c-10.2-2.326-22.709-11.638-36.718-11.638c-9.749,0-16.858,7.642-23.131,14.384     c-3.711,3.989-7.919,8.512-10.867,9.182c-9.256,2.094-25.006-8.256-38.563-1.71c-12.524,6.046-17.968,19.578-25.901,26.252     c-15.012-12.029-33.275-18.037-51.547-18.029c7.077-12.856,9.732-22.787,10.694-25.357c10.033-30.104,32.824-53.755,62.528-64.89     c15.157-5.685,25.076-20.147,25.076-36.183c0-21.292-17.246-38.64-38.65-38.64H28.216c3.102-9.456,6.766-18.719,11.019-27.7     c32.468,20.448,75.066,15.758,102.289-11.463c27.782-27.783,31.547-70.604,11.338-102.49     c37.491-17.886,80.526-26.274,124.34-22.408c-7.083,25.492,0.017,53.199,18.942,72.125c16.027,16.026,21.457,40.175,13.834,61.52     l-7.661,21.45c-10.748,30.098-9.898,62.921,2.393,92.422c12.859,30.863,44.884,48.579,77.857,43.083     c21.805-3.632,43.595,5.095,56.86,22.782c8.888,11.85,21.578,20.208,35.77,23.797     C457.818,392.755,430.496,425.993,396.514,450.569z M480.985,340.043c-11.738-2.425-22.3-9.057-29.556-18.731     c-16.639-22.188-43.969-33.13-71.326-28.578c-26.077,4.351-51.38-9.66-61.546-34.058c-10.854-26.048-11.604-55.03-2.112-81.606     l7.661-21.45c9.563-26.776,2.75-57.068-17.353-77.173c-15.633-15.632-21.146-38.781-14.445-59.692     c23.155,3.527,45.742,10.392,66.819,20.402c-23.335,36.606-14.506,86.486,22.634,112.184c0.161,0.117,0.326,0.228,0.496,0.332     c27.049,18.425,62.896,19.146,90.765,1.38C500.747,211.436,503.816,279.181,480.985,340.043z"/></g></g></g><g id="Layer_1"/></svg>