<?xml version="1.0" encoding="UTF-8" standalone="no"?>
<svg
   version="1.1"
   viewBox="0 0 330 510"
   xml:space="preserve"
   id="svg19"
   sodipodi:docname="de85c2d0fcfabbf05de164ce3e5c7f7a.svg"
   width="330"
   height="510"
   xmlns:inkscape="http://www.inkscape.org/namespaces/inkscape"
   xmlns:sodipodi="http://sodipodi.sourceforge.net/DTD/sodipodi-0.dtd"
   xmlns="http://www.w3.org/2000/svg"
   xmlns:svg="http://www.w3.org/2000/svg"><defs
     id="defs23" /><sodipodi:namedview
     id="namedview21"
     pagecolor="#ffffff"
     bordercolor="#666666"
     borderopacity="1.0"
     inkscape:pageshadow="2"
     inkscape:pageopacity="0.0"
     inkscape:pagecheckerboard="0" /><g
     id="_x32_3_x2C__Contact_x2C__arrows_x2C__mouses_x2C__communications_x2C__smartphone_x2C__clocks"
     transform="translate(-91,-1)"><g
       id="g15"><polygon
         id="XMLID_404_"
         style="fill:#ffffff"
         points="264.667,465.167 413.5,443.5 413.5,68.5 256,46.5 98.5,68.5 98.5,443.5 " /><polygon
         id="XMLID_407_"
         style="fill:#cddcf9"
         points="218.5,361 218.5,398.5 136,338.5 218.5,278.5 218.5,316 376,316 376,361 " /><polygon
         id="XMLID_408_"
         style="fill:#cddcf9"
         points="293.5,196 136,196 136,151 293.5,151 293.5,113.5 376,173.5 293.5,233.5 " /><path
         id="XMLID_410_"
         style="fill:#ffffff"
         d="m 413.5,38.5 v 30 h -315 v -30 c 0,-16.57 13.43,-30 30,-30 h 255 c 16.57,0 30,13.43 30,30 z" /><path
         id="XMLID_411_"
         style="fill:#ffffff"
         d="m 413.5,443.5 v 30 c 0,16.57 -13.43,30 -30,30 h -255 c -16.57,0 -30,-13.43 -30,-30 v -30 z" /><g
         id="g13"><path
           style="fill:#487fe9"
           d="m 383.5,1 h -255 C 107.822,1 91,17.822 91,38.5 v 435 c 0,20.678 16.822,37.5 37.5,37.5 h 255 c 20.678,0 37.5,-16.822 37.5,-37.5 V 38.5 C 421,17.822 404.178,1 383.5,1 Z M 406,473.5 c 0,12.406 -10.094,22.5 -22.5,22.5 h -255 C 116.094,496 106,485.906 106,473.5 V 451 H 406 Z M 406,436 H 106 V 76 H 406 Z M 406,61 H 106 V 38.5 C 106,26.094 116.094,16 128.5,16 h 255 c 12.406,0 22.5,10.094 22.5,22.5 z"
           id="path7" /><path
           style="fill:#487fe9"
           d="m 136,203.5 h 150 v 30 c 0,2.821 1.583,5.403 4.097,6.684 2.487,1.266 5.508,1.059 7.814,-0.618 l 82.5,-60 c 4.12,-2.996 4.11,-9.142 0,-12.131 l -82.5,-60 c -2.281,-1.658 -5.3,-1.899 -7.814,-0.618 -2.514,1.28 -4.097,3.862 -4.097,6.684 v 30 H 136 c -4.143,0 -7.5,3.357 -7.5,7.5 v 45 c 0,4.142 3.357,7.499 7.5,7.499 z m 7.5,-45 h 150 c 4.143,0 7.5,-3.357 7.5,-7.5 V 128.229 L 363.249,173.5 301,218.771 V 196 c 0,-4.143 -3.357,-7.5 -7.5,-7.5 h -150 z"
           id="path9" /><path
           style="fill:#487fe9"
           d="M 376,308.5 H 226 v -30 c 0,-2.821 -1.583,-5.403 -4.097,-6.684 -2.513,-1.278 -5.532,-1.041 -7.814,0.618 l -82.5,60 c -4.12,2.996 -4.11,9.142 0,12.131 l 82.5,60 c 1.307,0.95 2.855,1.435 4.412,1.435 4.114,0 7.499,-3.334 7.499,-7.5 v -30 h 150 c 4.143,0 7.5,-3.357 7.5,-7.5 v -45 c 0,-4.143 -3.357,-7.5 -7.5,-7.5 z m -7.5,45 h -150 c -4.143,0 -7.5,3.357 -7.5,7.5 v 22.772 L 148.751,338.5 211,293.228 V 316 c 0,4.143 3.357,7.5 7.5,7.5 h 150 z"
           id="path11" /></g></g></g><g
     id="Layer_1"
     transform="translate(-91,-1)" /></svg>
