<?xml version="1.0" encoding="UTF-8" standalone="no"?>
<svg
   version="1.1"
   viewBox="0 0 510 510"
   xml:space="preserve"
   id="svg50"
   sodipodi:docname="8c730baa4d0e36f585fcb1e8b60957d5.svg"
   width="510"
   height="510"
   xmlns:inkscape="http://www.inkscape.org/namespaces/inkscape"
   xmlns:sodipodi="http://sodipodi.sourceforge.net/DTD/sodipodi-0.dtd"
   xmlns="http://www.w3.org/2000/svg"
   xmlns:svg="http://www.w3.org/2000/svg"><defs
     id="defs54" /><sodipodi:namedview
     id="namedview52"
     pagecolor="#ffffff"
     bordercolor="#666666"
     borderopacity="1.0"
     inkscape:pageshadow="2"
     inkscape:pageopacity="0.0"
     inkscape:pagecheckerboard="0" /><g
     id="_x34_4_x2C__Calendar_x2C__schedule_x2C__administration_x2C__organization_x2C__date_x2C__time_and_date"
     transform="translate(-1,-1)"><g
       id="g46"><path
         id="XMLID_636_"
         style="fill:#ffffff"
         d="M 246.667,136 8.5,158.5 v 315 c 0,16.57 13.43,30 30,30 h 435 c 16.57,0 30,-13.43 30,-30 v -315 z" /><rect
         id="XMLID_637_"
         x="46"
         y="146"
         style="fill:#ffffff"
         width="420"
         height="320" /><rect
         id="XMLID_638_"
         x="279.57001"
         y="376"
         style="fill:#cddcf9"
         width="47.139999"
         height="45" /><rect
         id="XMLID_640_"
         x="91"
         y="289.75"
         style="fill:#cddcf9"
         width="47.139999"
         height="45" /><rect
         id="XMLID_641_"
         x="185.28999"
         y="376"
         style="fill:#cddcf9"
         width="47.139999"
         height="45" /><rect
         id="XMLID_643_"
         x="91"
         y="376"
         style="fill:#cddcf9"
         width="47.139999"
         height="45" /><rect
         id="XMLID_644_"
         x="373.85999"
         y="289.75"
         style="fill:#cddcf9"
         width="47.139999"
         height="45" /><rect
         id="XMLID_645_"
         x="279.57001"
         y="289.75"
         style="fill:#cddcf9"
         width="47.139999"
         height="45" /><rect
         id="XMLID_647_"
         x="185.28999"
         y="289.75"
         style="fill:#cddcf9"
         width="47.139999"
         height="45" /><rect
         id="XMLID_648_"
         x="373.85999"
         y="203.5"
         style="fill:#cddcf9"
         width="47.139999"
         height="45" /><rect
         id="XMLID_649_"
         x="279.57001"
         y="203.5"
         style="fill:#cddcf9"
         width="47.139999"
         height="45" /><rect
         id="XMLID_651_"
         x="185.28999"
         y="203.5"
         style="fill:#cddcf9"
         width="47.139999"
         height="45" /><path
         id="XMLID_652_"
         style="fill:#cddcf9"
         d="m 503.5,113.5 v 45 c -13.983,0 -442.6,0 -457.5,0 H 8.5 v -45 L 248,90.5 Z" /><path
         style="fill:#ffffff"
         d="m 473.5,38.5 h -435 c -16.57,0 -30,13.43 -30,30 v 45 h 495 v -45 c 0,-16.57 -13.43,-30 -30,-30 z"
         id="path15" /><path
         id="XMLID_653_"
         style="fill:#ffffff"
         d="m 274.75,49.75 c 0,10.36 -8.39,18.75 -18.75,18.75 -10.36,0 -18.75,-8.39 -18.75,-18.75 0,-7.869 0,-14.631 0,-22.5 0,-10.36 8.39,-18.75 18.75,-18.75 10.359,0 18.75,8.39 18.75,18.75 0,0 0,14.631 0,22.5 z" /><path
         id="XMLID_654_"
         style="fill:#ffffff"
         d="m 364.75,49.75 c 0,10.36 -8.39,18.75 -18.75,18.75 -10.36,0 -18.75,-8.39 -18.75,-18.75 0,-7.869 0,-14.631 0,-22.5 0,-10.36 8.39,-18.75 18.75,-18.75 10.359,0 18.75,8.39 18.75,18.75 0,0 0,14.631 0,22.5 z" /><path
         id="XMLID_655_"
         style="fill:#ffffff"
         d="m 454.75,49.75 c 0,10.36 -8.39,18.75 -18.75,18.75 -10.36,0 -18.75,-8.39 -18.75,-18.75 0,-7.869 0,-14.631 0,-22.5 0,-10.36 8.39,-18.75 18.75,-18.75 10.359,0 18.75,8.39 18.75,18.75 0,0 0,14.631 0,22.5 z" /><path
         id="XMLID_656_"
         style="fill:#ffffff"
         d="m 184.75,49.75 c 0,10.36 -8.39,18.75 -18.75,18.75 -10.36,0 -18.75,-8.39 -18.75,-18.75 0,-7.869 0,-14.631 0,-22.5 0,-10.36 8.39,-18.75 18.75,-18.75 10.359,0 18.75,8.39 18.75,18.75 0,7.869 0,14.631 0,22.5 z" /><path
         id="XMLID_657_"
         style="fill:#ffffff"
         d="M 94.75,49.75 C 94.75,60.11 86.36,68.5 76,68.5 65.64,68.5 57.25,60.11 57.25,49.75 c 0,-7.869 0,-14.631 0,-22.5 C 57.25,16.89 65.64,8.5 76,8.5 c 10.359,0 18.75,8.39 18.75,18.75 0,7.869 0,14.631 0,22.5 z" /><g
         id="g44"><path
           style="fill:#487fe9"
           d="M 473.5,31 H 462.25 V 27.25 C 462.25,12.775 450.475,1 436,1 421.525,1 409.75,12.775 409.75,27.25 V 31 h -37.5 V 27.25 C 372.25,12.775 360.475,1 346,1 331.525,1 319.75,12.775 319.75,27.25 V 31 h -37.5 V 27.25 C 282.25,12.775 270.475,1 256,1 241.525,1 229.75,12.775 229.75,27.25 V 31 h -37.5 V 27.25 C 192.25,12.775 180.475,1 166,1 151.525,1 139.75,12.775 139.75,27.25 V 31 h -37.5 V 27.25 C 102.25,12.775 90.475,1 76,1 61.525,1 49.75,12.775 49.75,27.25 V 31 H 38.5 C 17.822,31 1,47.822 1,68.5 v 405 C 1,494.178 17.822,511 38.5,511 h 435 c 20.678,0 37.5,-16.822 37.5,-37.5 V 68.5 C 511,47.822 494.178,31 473.5,31 Z M 424.75,27.25 C 424.75,21.047 429.797,16 436,16 c 6.203,0 11.25,5.047 11.25,11.25 v 22.5 C 447.25,55.953 442.203,61 436,61 429.797,61 424.75,55.953 424.75,49.75 Z m -90,0 C 334.75,21.047 339.797,16 346,16 c 6.203,0 11.25,5.047 11.25,11.25 v 22.5 C 357.25,55.953 352.203,61 346,61 339.797,61 334.75,55.953 334.75,49.75 Z m -90,0 C 244.75,21.047 249.797,16 256,16 c 6.203,0 11.25,5.047 11.25,11.25 v 22.5 C 267.25,55.953 262.203,61 256,61 249.797,61 244.75,55.953 244.75,49.75 Z m -90,0 C 154.75,21.047 159.797,16 166,16 c 6.203,0 11.25,5.047 11.25,11.25 v 22.5 C 177.25,55.953 172.203,61 166,61 159.797,61 154.75,55.953 154.75,49.75 Z m -90,0 C 64.75,21.047 69.797,16 76,16 c 6.203,0 11.25,5.047 11.25,11.25 v 22.5 C 87.25,55.953 82.203,61 76,61 69.797,61 64.75,55.953 64.75,49.75 Z M 496,473.5 c 0,12.406 -10.094,22.5 -22.5,22.5 H 38.5 C 26.094,496 16,485.906 16,473.5 V 166 h 22.5 v 300 c 0,4.143 3.357,7.5 7.5,7.5 h 420 c 4.143,0 7.5,-3.357 7.5,-7.5 V 166 H 496 Z M 53.5,458.5 V 166 h 405 V 458.5 Z M 496,151 c -17.082,0 -463.287,0 -480,0 v -30 h 480 z m 0,-45 H 16 V 68.5 C 16,56.094 26.094,46 38.5,46 h 11.25 v 3.75 C 49.75,64.225 61.525,76 76,76 90.475,76 102.25,64.225 102.25,49.75 V 46 h 37.5 v 3.75 C 139.75,64.225 151.525,76 166,76 180.475,76 192.25,64.225 192.25,49.75 V 46 h 37.5 v 3.75 C 229.75,64.225 241.525,76 256,76 270.475,76 282.25,64.225 282.25,49.75 V 46 h 37.5 v 3.75 C 319.75,64.225 331.525,76 346,76 360.475,76 372.25,64.225 372.25,49.75 V 46 h 37.5 v 3.75 C 409.75,64.225 421.525,76 436,76 450.475,76 462.25,64.225 462.25,49.75 V 46 h 11.25 c 12.406,0 22.5,10.094 22.5,22.5 z"
           id="path22" /><path
           style="fill:#487fe9"
           d="m 232.429,196 h -47.143 c -4.143,0 -7.5,3.357 -7.5,7.5 v 45 c 0,4.143 3.357,7.5 7.5,7.5 h 47.143 c 4.143,0 7.5,-3.357 7.5,-7.5 v -45 c 0,-4.143 -3.358,-7.5 -7.5,-7.5 z m -7.5,45 h -32.143 v -30 h 32.143 z"
           id="path24" /><path
           style="fill:#487fe9"
           d="m 326.714,196 h -47.143 c -4.143,0 -7.5,3.357 -7.5,7.5 v 45 c 0,4.143 3.357,7.5 7.5,7.5 h 47.143 c 4.143,0 7.5,-3.357 7.5,-7.5 v -45 c 0,-4.143 -3.358,-7.5 -7.5,-7.5 z m -7.5,45 h -32.143 v -30 h 32.143 z"
           id="path26" /><path
           style="fill:#487fe9"
           d="m 421,196 h -47.143 c -4.143,0 -7.5,3.357 -7.5,7.5 v 45 c 0,4.143 3.357,7.5 7.5,7.5 H 421 c 4.143,0 7.5,-3.357 7.5,-7.5 v -45 c 0,-4.143 -3.357,-7.5 -7.5,-7.5 z m -7.5,45 H 381.357 V 211 H 413.5 Z"
           id="path28" /><path
           style="fill:#487fe9"
           d="M 138.143,282.25 H 91 c -4.143,0 -7.5,3.357 -7.5,7.5 v 45 c 0,4.143 3.357,7.5 7.5,7.5 h 47.143 c 4.143,0 7.5,-3.357 7.5,-7.5 v -45 c 0,-4.143 -3.358,-7.5 -7.5,-7.5 z m -7.5,45 H 98.5 v -30 h 32.143 z"
           id="path30" /><path
           style="fill:#487fe9"
           d="m 232.429,282.25 h -47.143 c -4.143,0 -7.5,3.357 -7.5,7.5 v 45 c 0,4.143 3.357,7.5 7.5,7.5 h 47.143 c 4.143,0 7.5,-3.357 7.5,-7.5 v -45 c 0,-4.143 -3.358,-7.5 -7.5,-7.5 z m -7.5,45 h -32.143 v -30 h 32.143 z"
           id="path32" /><path
           style="fill:#487fe9"
           d="m 326.714,282.25 h -47.143 c -4.143,0 -7.5,3.357 -7.5,7.5 v 45 c 0,4.143 3.357,7.5 7.5,7.5 h 47.143 c 4.143,0 7.5,-3.357 7.5,-7.5 v -45 c 0,-4.143 -3.358,-7.5 -7.5,-7.5 z m -7.5,45 h -32.143 v -30 h 32.143 z"
           id="path34" /><path
           style="fill:#487fe9"
           d="m 421,282.25 h -47.143 c -4.143,0 -7.5,3.357 -7.5,7.5 v 45 c 0,4.143 3.357,7.5 7.5,7.5 H 421 c 4.143,0 7.5,-3.357 7.5,-7.5 v -45 c 0,-4.143 -3.357,-7.5 -7.5,-7.5 z m -7.5,45 h -32.143 v -30 H 413.5 Z"
           id="path36" /><path
           style="fill:#487fe9"
           d="M 138.143,368.5 H 91 c -4.143,0 -7.5,3.357 -7.5,7.5 v 45 c 0,4.143 3.357,7.5 7.5,7.5 h 47.143 c 4.143,0 7.5,-3.357 7.5,-7.5 v -45 c 0,-4.143 -3.358,-7.5 -7.5,-7.5 z m -7.5,45 H 98.5 v -30 h 32.143 z"
           id="path38" /><path
           style="fill:#487fe9"
           d="m 232.429,368.5 h -47.143 c -4.143,0 -7.5,3.357 -7.5,7.5 v 45 c 0,4.143 3.357,7.5 7.5,7.5 h 47.143 c 4.143,0 7.5,-3.357 7.5,-7.5 v -45 c 0,-4.143 -3.358,-7.5 -7.5,-7.5 z m -7.5,45 h -32.143 v -30 h 32.143 z"
           id="path40" /><path
           style="fill:#487fe9"
           d="m 326.714,368.5 h -47.143 c -4.143,0 -7.5,3.357 -7.5,7.5 v 45 c 0,4.143 3.357,7.5 7.5,7.5 h 47.143 c 4.143,0 7.5,-3.357 7.5,-7.5 v -45 c 0,-4.143 -3.358,-7.5 -7.5,-7.5 z m -7.5,45 h -32.143 v -30 h 32.143 z"
           id="path42" /></g></g></g><g
     id="Layer_1"
     transform="translate(-1,-1)" /></svg>
