<?xml version="1.0" encoding="UTF-8" standalone="no"?>
<svg
   version="1.1"
   viewBox="0 0 510.06113 510.06024"
   xml:space="preserve"
   id="svg24"
   sodipodi:docname="7e6f29a5f8d9d20bc09c479031e0ade3.svg"
   width="510.06113"
   height="510.06024"
   xmlns:inkscape="http://www.inkscape.org/namespaces/inkscape"
   xmlns:sodipodi="http://sodipodi.sourceforge.net/DTD/sodipodi-0.dtd"
   xmlns="http://www.w3.org/2000/svg"
   xmlns:svg="http://www.w3.org/2000/svg"><defs
     id="defs28" /><sodipodi:namedview
     id="namedview26"
     pagecolor="#ffffff"
     bordercolor="#666666"
     borderopacity="1.0"
     inkscape:pageshadow="2"
     inkscape:pageopacity="0.0"
     inkscape:pagecheckerboard="0" /><g
     id="_x34_0_x2C__Link_x2C__Tools_and_utensils_x2C__hyperlink_x2C__communications_x2C__linked_x2C__multimedia"
     transform="translate(-0.96987499,-0.96987498)"><g
       id="g20"><path
         id="XMLID_594_"
         style="fill:#cddcf9"
         d="M 330.86,270.4 C 319.007,227.058 285,193.006 241.59,181.14 c -41.28,11.783 -19.257,70.995 28.81,149.72 -3.3,7.71 -8.11,14.93 -14.4,21.23 l -72.07,72.06 c -26.53,26.54 -69.55,26.54 -96.08,0 -26.54,-26.53 -26.54,-69.55 0,-96.09 L 159.91,256 c 6.3,-6.29 13.52,-11.1 21.23,-14.4 L 207,211 179.79,179.79 c -22.7,5.12 -44.25,16.51 -61.91,34.17 l -72.07,72.07 c -49.75,49.75 -49.75,130.41 0,180.16 49.75,49.75 130.41,49.75 180.16,0 l 72.07,-72.07 c 17.66,-17.66 29.05,-39.22 34.17,-61.91 L 356,302.166 Z" /><path
         id="XMLID_596_"
         style="fill:#ffffff"
         d="m 466.19,45.81 c 49.752,49.752 49.742,130.418 0,180.16 l -72.07,72.07 c -17.66,17.66 -39.22,29.05 -61.91,34.17 4.596,-20.364 4.146,-41.571 -1.35,-61.81 7.71,-3.3 14.93,-8.11 21.23,-14.4 l 72.06,-72.06 c 26.54,-26.54 26.541,-69.549 0,-96.09 -26.54,-26.54 -69.55,-26.54 -96.09,0 L 256,159.91 c -26.581,26.623 -26.492,69.598 0,96.09 20.011,20.011 25.164,49.745 14.4,74.86 -65.089,-17.8 -105.782,-83.95 -90.61,-151.07 5.12,-22.69 16.51,-44.25 34.17,-61.91 l 72.07,-72.07 c 49.74,-49.75 130.41,-49.75 180.16,0 z" /><g
         id="g18"><path
           style="fill:#487fe9"
           d="m 383.278,372.672 c -2.93,-2.928 -7.678,-2.928 -10.607,0 -2.929,2.93 -2.929,7.678 0,10.607 l 42.427,42.427 c 2.931,2.929 7.678,2.928 10.607,0 2.929,-2.93 2.929,-7.678 0,-10.607 z"
           id="path4" /><path
           style="fill:#487fe9"
           d="m 497.02,339.041 -63.64,-21.213 c -3.933,-1.307 -8.178,0.813 -9.487,4.743 -1.31,3.93 0.814,8.178 4.743,9.487 l 63.64,21.213 c 3.956,1.315 8.185,-0.837 9.487,-4.743 1.309,-3.929 -0.815,-8.177 -4.743,-9.487 z"
           id="path6" /><path
           style="fill:#487fe9"
           d="m 332.058,428.637 c -1.31,-3.93 -5.555,-6.051 -9.487,-4.743 -3.929,1.31 -6.053,5.558 -4.743,9.487 l 21.213,63.64 c 1.303,3.909 5.533,6.058 9.487,4.743 3.929,-1.31 6.053,-5.558 4.743,-9.487 z"
           id="path8" /><path
           style="fill:#487fe9"
           d="m 128.72,139.328 c 2.931,2.929 7.678,2.928 10.607,0 2.929,-2.93 2.929,-7.678 0,-10.607 L 96.9,86.294 c -2.93,-2.928 -7.678,-2.928 -10.607,0 -2.929,2.93 -2.929,7.678 0,10.607 z"
           id="path10" /><path
           style="fill:#487fe9"
           d="m 14.979,172.959 63.64,21.213 c 3.956,1.315 8.185,-0.837 9.487,-4.743 1.31,-3.93 -0.814,-8.178 -4.743,-9.487 l -63.64,-21.213 c -3.931,-1.311 -8.177,0.813 -9.487,4.743 -1.31,3.929 0.814,8.177 4.743,9.487 z"
           id="path12" /><path
           style="fill:#487fe9"
           d="m 179.94,83.363 c 1.303,3.909 5.533,6.058 9.487,4.743 3.929,-1.31 6.053,-5.558 4.743,-9.487 l -21.213,-63.64 c -1.311,-3.929 -5.555,-6.05 -9.487,-4.743 -3.929,1.31 -6.053,5.558 -4.743,9.487 z"
           id="path14" /><path
           style="fill:#487fe9"
           d="m 399.427,303.342 72.064,-72.065 c 52.716,-52.716 52.724,-138.044 0,-190.769 -52.716,-52.715 -138.046,-52.72 -190.768,0 l -72.065,72.065 c -16.957,16.958 -29.021,37.971 -35.074,61.012 -23.04,6.052 -44.053,18.116 -61.012,35.073 l -72.064,72.065 c -52.716,52.718 -52.719,138.048 0,190.769 52.717,52.715 138.046,52.72 190.769,0 l 72.065,-72.065 c 16.957,-16.958 29.02,-37.971 35.073,-61.012 23.039,-6.053 44.053,-18.116 61.012,-35.073 z M 187.102,181.44 c 4.981,-22.054 16.102,-42.2 32.163,-58.261 L 291.33,51.115 c 46.851,-46.853 122.696,-46.86 169.554,0 46.855,46.854 46.862,122.694 0,169.554 l -72.064,72.066 c -13.32,13.319 -29.454,23.227 -47.151,29.067 2.096,-15.857 1.397,-31.661 -2.089,-47.289 6.525,-3.484 12.5,-7.903 17.808,-13.21 l 72.063,-72.064 c 29.367,-29.362 29.597,-77.1 10e-4,-106.692 C 399.965,53.06 352.25,53.057 322.759,82.546 l -72.064,72.065 c -29.09,29.086 -29.975,76.718 -0.001,106.693 16.412,16.41 21.348,39.705 15.101,60.302 C 208.18,302.204 173.393,242.164 187.102,181.44 Z m -10.47,70.892 c 13.544,38.843 44.173,69.484 83.035,83.035 -2.502,4.124 -5.501,7.946 -8.971,11.415 l -72.064,72.064 c -23.622,23.624 -61.852,23.628 -85.479,0 -23.623,-23.623 -23.627,-61.853 10e-4,-85.478 l 72.065,-72.065 c 3.467,-3.47 7.289,-6.468 11.413,-8.971 z m 116.101,136.488 -72.065,72.065 c -46.851,46.853 -122.696,46.86 -169.554,0 -46.853,-46.851 -46.86,-122.696 0,-169.554 l 72.063,-72.065 c 13.318,-13.318 29.451,-23.225 47.145,-29.065 -2.07,15.727 -1.357,31.79 2.094,47.287 -6.526,3.484 -12.501,7.903 -17.807,13.209 l -72.064,72.064 c -29.485,29.487 -29.491,77.204 0,106.692 29.487,29.487 77.202,29.49 106.693,0.001 l 72.063,-72.065 c 29.125,-29.121 29.815,-76.879 0.001,-106.693 -15.998,-15.997 -21.604,-39.064 -15.116,-60.307 17.449,5.873 33.433,15.763 46.546,28.875 46.816,46.818 46.842,122.715 10e-4,169.556 z M 252.332,176.633 c 2.502,-4.124 5.501,-7.946 8.971,-11.415 l 72.064,-72.064 c 23.622,-23.624 61.852,-23.628 85.479,0 23.676,23.676 23.57,61.91 -10e-4,85.479 l -72.064,72.064 c -3.47,3.471 -7.292,6.469 -11.415,8.971 -13.544,-38.844 -44.172,-69.484 -83.034,-83.035 z"
           id="path16" /></g></g></g><g
     id="Layer_1"
     transform="translate(-0.96987499,-0.96987498)" /></svg>
