<?xml version="1.0" encoding="UTF-8" standalone="no"?>
<svg
   version="1.1"
   viewBox="0 0 510.00101 510"
   xml:space="preserve"
   id="svg37"
   sodipodi:docname="5ffcc1e2f59c572acc069a606b1419d6.svg"
   width="510.00101"
   height="510"
   xmlns:inkscape="http://www.inkscape.org/namespaces/inkscape"
   xmlns:sodipodi="http://sodipodi.sourceforge.net/DTD/sodipodi-0.dtd"
   xmlns="http://www.w3.org/2000/svg"
   xmlns:svg="http://www.w3.org/2000/svg"><defs
     id="defs41" /><sodipodi:namedview
     id="namedview39"
     pagecolor="#ffffff"
     bordercolor="#666666"
     borderopacity="1.0"
     inkscape:pageshadow="2"
     inkscape:pageopacity="0.0"
     inkscape:pagecheckerboard="0" /><g
     id="_x32_1_x2C__Sms_x2C__notification_x2C__smartphone_x2C__touch_screen_x2C__mobile_phone_x2C__communications"
     transform="translate(-1,-1)"><g
       id="g33"><polygon
         id="XMLID_382_"
         style="fill:#ffffff"
         points="256,473.5 413.5,443.5 413.5,68.5 256,49.75 98.5,68.5 98.5,443.5 " /><path
         id="XMLID_383_"
         style="fill:#cddcf9"
         d="m 478.5,98.5 c -6.183,0 -198.827,0 -205,0 -13.81,0 -25,11.19 -25,25 v 40 c 0,13.81 11.19,25 25,25 h 140 22.5 l 26.25,22.5 v -22.5 h 16.25 c 13.81,0 25,-11.19 25,-25 v -40 c 0,-13.81 -11.19,-25 -25,-25 z" /><circle
         id="XMLID_384_"
         style="fill:#ffffff"
         cx="301"
         cy="143.5"
         r="15" /><path
         id="XMLID_385_"
         style="fill:#cddcf9"
         d="m 238.5,211 c -6.173,0 -198.817,0 -205,0 -13.81,0 -25,11.19 -25,25 v 40 c 0,13.81 11.19,25 25,25 h 16.25 v 22.5 L 76,301 c 35.064,0 128.573,0 162.5,0 13.81,0 25,-11.19 25,-25 v -40 c 0,-13.81 -11.19,-25 -25,-25 z" /><circle
         id="XMLID_386_"
         style="fill:#ffffff"
         cx="211"
         cy="256"
         r="15" /><path
         id="XMLID_387_"
         style="fill:#ffffff"
         d="m 413.5,443.5 v 30 c 0,16.57 -13.43,30 -30,30 h -255 c -16.57,0 -30,-13.43 -30,-30 v -30 z" /><path
         id="XMLID_389_"
         style="fill:#ffffff"
         d="m 413.5,38.5 v 30 h -315 v -30 c 0,-16.57 13.43,-30 30,-30 h 255 c 16.57,0 30,13.43 30,30 z" /><path
         id="XMLID_390_"
         style="fill:#cddcf9"
         d="m 478.5,323.5 h -65 -140 c -13.81,0 -25,11.19 -25,25 v 40 c 0,13.81 11.19,25 25,25 33.878,0 127.45,0 162.5,0 l 26.25,22.5 v -22.5 h 16.25 c 13.81,0 25,-11.19 25,-25 v -40 c 0,-13.81 -11.19,-25 -25,-25 z" /><circle
         id="XMLID_391_"
         style="fill:#ffffff"
         cx="301"
         cy="368.5"
         r="15" /><g
         id="g31"><path
           style="fill:#487fe9"
           d="m 211,278.5 c 12.406,0 22.5,-10.094 22.5,-22.5 0,-12.406 -10.094,-22.5 -22.5,-22.5 -12.406,0 -22.5,10.094 -22.5,22.5 0,12.406 10.094,22.5 22.5,22.5 z m 0,-30 c 4.136,0 7.5,3.364 7.5,7.5 0,4.136 -3.364,7.5 -7.5,7.5 -4.136,0 -7.5,-3.364 -7.5,-7.5 0,-4.136 3.364,-7.5 7.5,-7.5 z"
           id="path11" /><path
           style="fill:#487fe9"
           d="m 46,248.5 h 112.5 c 4.143,0 7.5,-3.357 7.5,-7.5 0,-4.143 -3.357,-7.5 -7.5,-7.5 H 46 c -4.143,0 -7.5,3.357 -7.5,7.5 0,4.143 3.357,7.5 7.5,7.5 z"
           id="path13" /><path
           style="fill:#487fe9"
           d="m 166,271 c 0,-4.143 -3.357,-7.5 -7.5,-7.5 H 46 c -4.143,0 -7.5,3.357 -7.5,7.5 0,4.143 3.357,7.5 7.5,7.5 h 112.5 c 4.143,0 7.5,-3.357 7.5,-7.5 z"
           id="path15" /><path
           style="fill:#487fe9"
           d="m 433.226,196 24.144,20.694 c 1.387,1.188 3.125,1.806 4.882,1.806 4.124,0 7.499,-3.347 7.499,-7.5 v -15 h 8.75 c 17.921,0 32.5,-14.579 32.5,-32.5 v -40 c 0,-17.921 -14.579,-32.5 -32.5,-32.5 H 421 V 38.5 C 421,17.822 404.178,1 383.5,1 h -255 C 107.822,1 91,17.822 91,38.5 v 165 H 33.5 C 15.579,203.5 1,218.079 1,236 v 40 c 0,17.921 14.579,32.5 32.5,32.5 h 8.75 v 15 c 0,4.158 3.379,7.5 7.499,7.5 1.757,0 3.496,-0.617 4.882,-1.806 L 78.774,308.5 H 91 v 165 c 0,20.678 16.822,37.5 37.5,37.5 h 255 c 20.678,0 37.5,-16.822 37.5,-37.5 V 421 h 12.226 l 24.144,20.694 c 1.387,1.189 3.125,1.806 4.882,1.806 4.124,0 7.499,-3.347 7.499,-7.5 v -15 h 8.75 c 17.921,0 32.5,-14.579 32.5,-32.5 v -40 c 0,-17.921 -14.579,-32.5 -32.5,-32.5 H 421 V 196 Z M 496,123.5 v 40 c 0,9.649 -7.851,17.5 -17.5,17.5 h -16.25 c -4.143,0 -7.5,3.357 -7.5,7.5 v 6.193 L 440.881,182.805 C 439.522,181.641 437.79,181 436,181 H 273.5 c -9.649,0 -17.5,-7.851 -17.5,-17.5 v -40 c 0,-9.649 7.851,-17.5 17.5,-17.5 h 205 c 9.649,0 17.5,7.851 17.5,17.5 z M 106,38.5 C 106,26.094 116.094,16 128.5,16 h 255 C 395.906,16 406,26.094 406,38.5 V 61 H 106 Z m -30,255 c -1.79,0 -3.522,0.641 -4.881,1.806 L 57.25,307.193 V 301 c 0,-4.143 -3.357,-7.5 -7.5,-7.5 H 33.5 C 23.851,293.5 16,285.649 16,276 v -40 c 0,-9.649 7.851,-17.5 17.5,-17.5 h 205 c 9.649,0 17.5,7.851 17.5,17.5 v 40 c 0,9.649 -7.851,17.5 -17.5,17.5 z m 330,180 c 0,12.406 -10.094,22.5 -22.5,22.5 h -255 C 116.094,496 106,485.906 106,473.5 V 451 h 300 z m 90,-125 v 40 c 0,9.649 -7.851,17.5 -17.5,17.5 h -16.25 c -4.143,0 -7.5,3.357 -7.5,7.5 v 6.193 L 440.881,407.805 C 439.522,406.641 437.79,406 436,406 H 273.5 c -9.649,0 -17.5,-7.851 -17.5,-17.5 v -40 c 0,-9.649 7.851,-17.5 17.5,-17.5 h 205 c 9.649,0 17.5,7.851 17.5,17.5 z M 406,316 H 273.5 c -17.921,0 -32.5,14.579 -32.5,32.5 v 40 c 0,17.921 14.579,32.5 32.5,32.5 H 406 v 15 H 106 V 308.5 h 132.5 c 17.921,0 32.5,-14.579 32.5,-32.5 v -40 c 0,-17.921 -14.579,-32.5 -32.5,-32.5 H 106 V 76 H 406 V 91 H 273.5 C 255.579,91 241,105.579 241,123.5 v 40 c 0,17.921 14.579,32.5 32.5,32.5 H 406 Z"
           id="path17" /><path
           style="fill:#487fe9"
           d="m 301,121 c -12.406,0 -22.5,10.094 -22.5,22.5 0,12.406 10.094,22.5 22.5,22.5 12.406,0 22.5,-10.094 22.5,-22.5 0,-12.406 -10.094,-22.5 -22.5,-22.5 z m 0,30 c -4.136,0 -7.5,-3.364 -7.5,-7.5 0,-4.136 3.364,-7.5 7.5,-7.5 4.136,0 7.5,3.364 7.5,7.5 0,4.136 -3.364,7.5 -7.5,7.5 z"
           id="path19" /><path
           style="fill:#487fe9"
           d="m 346,128.5 c 0,4.143 3.357,7.5 7.5,7.5 H 466 c 4.143,0 7.5,-3.357 7.5,-7.5 0,-4.143 -3.357,-7.5 -7.5,-7.5 H 353.5 c -4.143,0 -7.5,3.357 -7.5,7.5 z"
           id="path21" /><path
           style="fill:#487fe9"
           d="M 466,151 H 353.5 c -4.143,0 -7.5,3.357 -7.5,7.5 0,4.143 3.357,7.5 7.5,7.5 H 466 c 4.143,0 7.5,-3.357 7.5,-7.5 0,-4.143 -3.357,-7.5 -7.5,-7.5 z"
           id="path23" /><path
           style="fill:#487fe9"
           d="m 301,346 c -12.406,0 -22.5,10.094 -22.5,22.5 0,12.406 10.094,22.5 22.5,22.5 12.406,0 22.5,-10.094 22.5,-22.5 0,-12.406 -10.094,-22.5 -22.5,-22.5 z m 0,30 c -4.136,0 -7.5,-3.364 -7.5,-7.5 0,-4.136 3.364,-7.5 7.5,-7.5 4.136,0 7.5,3.364 7.5,7.5 0,4.136 -3.364,7.5 -7.5,7.5 z"
           id="path25" /><path
           style="fill:#487fe9"
           d="m 346,353.5 c 0,4.143 3.357,7.5 7.5,7.5 H 466 c 4.143,0 7.5,-3.357 7.5,-7.5 0,-4.143 -3.357,-7.5 -7.5,-7.5 H 353.5 c -4.143,0 -7.5,3.357 -7.5,7.5 z"
           id="path27" /><path
           style="fill:#487fe9"
           d="M 466,376 H 353.5 c -4.143,0 -7.5,3.357 -7.5,7.5 0,4.143 3.357,7.5 7.5,7.5 H 466 c 4.143,0 7.5,-3.357 7.5,-7.5 0,-4.143 -3.357,-7.5 -7.5,-7.5 z"
           id="path29" /></g></g></g><g
     id="Layer_1"
     transform="translate(-1,-1)" /></svg>
