<?xml version="1.0" encoding="UTF-8" standalone="no"?>
<svg
   version="1.1"
   viewBox="0 0 472.5 509.99799"
   xml:space="preserve"
   id="svg31"
   sodipodi:docname="350f65b51b3b9c17869459fdf35b2f4e.svg"
   width="472.5"
   height="509.99799"
   xmlns:inkscape="http://www.inkscape.org/namespaces/inkscape"
   xmlns:sodipodi="http://sodipodi.sourceforge.net/DTD/sodipodi-0.dtd"
   xmlns="http://www.w3.org/2000/svg"
   xmlns:svg="http://www.w3.org/2000/svg"><defs
     id="defs35" /><sodipodi:namedview
     id="namedview33"
     pagecolor="#ffffff"
     bordercolor="#666666"
     borderopacity="1.0"
     inkscape:pageshadow="2"
     inkscape:pageopacity="0.0"
     inkscape:pagecheckerboard="0" /><g
     id="_x30_6_x2C__Phone_Book_x2C__telephone_x2C__contacts_x2C__agenda_x2C__contact_person_x2C__communications"
     transform="translate(-19.75,-1)"><g
       id="g27"><path
         id="XMLID_123_"
         style="fill:#ffffff"
         d="m 484.75,112.25 v 42.5 L 422,171.5 439.75,87.25 h 20 c 13.81,0 25,11.19 25,25 z" /><path
         id="XMLID_124_"
         style="fill:#ffffff"
         d="m 484.75,357.25 v 42.5 c 0,13.81 -11.19,25 -25,25 h -20 L 423.5,341.5 Z" /><polygon
         id="XMLID_125_"
         style="fill:#ffffff"
         points="425.75,300.5 425.75,208.25 484.75,222.25 484.75,289.75 " /><rect
         id="XMLID_126_"
         x="425.75"
         y="154.75"
         style="fill:#ffffff"
         width="59"
         height="67.5" /><rect
         id="XMLID_127_"
         x="422"
         y="289.75"
         style="fill:#ffffff"
         width="62.75"
         height="67.5" /><path
         id="XMLID_128_"
         style="fill:#ffffff"
         d="M 409.75,8.5 H 132.25 L 105.795,276.28 132.25,503.5 h 277.5 c 16.57,0 30,-13.43 30,-30 0,-54.894 0,-380.992 0,-435 0,-16.57 -13.43,-30 -30,-30 z" /><path
         id="XMLID_129_"
         style="fill:#cddcf9"
         d="m 389.26,274.21 c 5.04,7.72 2.87,18.07 -4.85,23.11 l -31.78,20.75 c -10.91,7.12 -24.95,7.24 -35.99,0.33 C 242.657,272.103 192.82,196.903 180.36,109.71 178.52,96.85 184.28,84.1 195.15,77 l 31.83,-20.78 c 7.72,-5.04 18.06,-2.87 23.1,4.85 l 22.82,34.94 c 5.04,7.72 2.87,18.06 -4.85,23.1 l -22.71,14.83 c 0.56,12.17 3.04,39.39 21.92,67.92 18.35,27.73 42.45,41.98 53.37,47.39 l 22.71,-14.83 c 7.72,-5.04 18.07,-2.87 23.11,4.85 z" /><path
         id="XMLID_133_"
         style="fill:#cddcf9"
         d="m 87.25,8.5 c -16.57,0 -30,13.43 -30,30 v 435 c 0,16.57 13.43,30 30,30 h 45 V 8.5 Z" /><path
         id="XMLID_135_"
         style="fill:#ffffff"
         d="m 66.97,146.48 c 11.2,0 20.28,9.08 20.28,20.29 0,11.2 -9.08,20.28 -20.28,20.28 -6.799,0 -12.641,0 -19.44,0 -11.2,0 -20.28,-9.08 -20.28,-20.28 0,-11.173 9.039,-20.29 20.28,-20.29 h 9.72 z" /><path
         id="XMLID_142_"
         style="fill:#ffffff"
         d="m 66.97,235.72 c 11.2,0 20.28,9.08 20.28,20.28 0,11.2 -9.08,20.28 -20.28,20.28 -6.799,0 -12.641,0 -19.44,0 -11.2,0 -20.28,-9.08 -20.28,-20.28 0,-11.2 9.08,-20.28 20.28,-20.28 h 9.72 z" /><path
         id="XMLID_148_"
         style="fill:#ffffff"
         d="m 66.97,324.95 c 11.2,0 20.28,9.08 20.28,20.28 0,11.173 -9.039,20.29 -20.28,20.29 -6.799,0 -12.641,0 -19.44,0 -11.2,0 -20.28,-9.08 -20.28,-20.29 0,-11.2 9.08,-20.28 20.28,-20.28 h 9.72 z" /><path
         id="XMLID_149_"
         style="fill:#ffffff"
         d="m 66.97,414.19 c 11.2,0 20.28,9.08 20.28,20.28 0,11.2 -9.08,20.28 -20.28,20.28 -6.799,0 -12.641,0 -19.44,0 -11.2,0 -20.28,-9.08 -20.28,-20.28 0,-11.2 9.08,-20.28 20.28,-20.28 h 9.72 z" /><path
         id="XMLID_152_"
         style="fill:#ffffff"
         d="m 66.97,57.25 c 11.2,0 20.28,9.08 20.28,20.28 0,11.2 -9.08,20.28 -20.28,20.28 -6.799,0 -12.641,0 -19.44,0 -11.2,0 -20.28,-9.08 -20.28,-20.28 0,-11.2 9.08,-20.28 20.28,-20.28 h 9.72 z" /><g
         id="g25"><path
           style="fill:#487fe9"
           d="m 402.25,361 h -232.5 c -4.143,0 -7.5,3.357 -7.5,7.5 0,4.143 3.357,7.5 7.5,7.5 h 232.5 c 4.143,0 7.5,-3.357 7.5,-7.5 0,-4.143 -3.357,-7.5 -7.5,-7.5 z"
           id="path15" /><path
           style="fill:#487fe9"
           d="m 379.75,406 h -187.5 c -4.143,0 -7.5,3.357 -7.5,7.5 0,4.143 3.357,7.5 7.5,7.5 h 187.5 c 4.143,0 7.5,-3.357 7.5,-7.5 0,-4.143 -3.357,-7.5 -7.5,-7.5 z"
           id="path17" /><path
           style="fill:#487fe9"
           d="m 357.25,451 h -142.5 c -4.143,0 -7.5,3.357 -7.5,7.5 0,4.143 3.357,7.5 7.5,7.5 h 142.5 c 4.143,0 7.5,-3.357 7.5,-7.5 0,-4.143 -3.357,-7.5 -7.5,-7.5 z"
           id="path19" /><path
           style="fill:#487fe9"
           d="m 459.75,79.75 h -12.5 V 38.5 C 447.25,17.822 430.428,1 409.75,1 H 87.25 C 66.572,1 49.75,17.822 49.75,38.5 v 11.25 h -2.22 c -15.318,0 -27.78,12.462 -27.78,27.78 0,15.318 12.462,27.781 27.78,27.781 h 2.22 v 33.673 h -2.22 c -15.318,0 -27.78,12.463 -27.78,27.781 0,15.318 12.462,27.78 27.78,27.78 h 2.22 v 33.674 h -2.22 c -15.318,0 -27.78,12.462 -27.78,27.78 0,15.318 12.462,27.78 27.78,27.78 h 2.22 v 33.674 h -2.22 c -15.318,0 -27.78,12.462 -27.78,27.78 0,15.318 12.462,27.781 27.78,27.781 h 2.22 v 33.673 h -2.22 c -15.318,0 -27.78,12.463 -27.78,27.781 0,15.318 12.462,27.78 27.78,27.78 h 2.22 v 11.25 c 0,20.678 16.822,37.5 37.5,37.5 h 322.5 c 20.678,0 37.5,-16.822 37.5,-37.5 v -41.25 h 12.5 c 17.921,0 32.5,-14.579 32.5,-32.5 0,-103.606 0,-183.589 0,-287.5 0,-17.919 -14.579,-32.498 -32.5,-32.498 z m -425,-2.22 c 0,-7.047 5.733,-12.78 12.78,-12.78 h 19.44 c 7.047,0 12.78,5.733 12.78,12.78 0,7.048 -5.733,12.781 -12.78,12.781 -12.287,-0.002 -7.154,-0.002 -19.439,0 C 40.483,90.312 34.75,84.578 34.75,77.53 Z m 0,89.236 c 0,-7.048 5.733,-12.781 12.78,-12.781 h 19.44 c 7.047,0 12.78,5.733 12.78,12.781 0,7.047 -5.733,12.78 -12.78,12.78 H 47.53 c -7.047,0 -12.78,-5.733 -12.78,-12.78 z m 0,89.234 c 0,-7.047 5.733,-12.78 12.78,-12.78 h 19.44 c 7.047,0 12.78,5.733 12.78,12.78 0,7.047 -5.733,12.78 -12.78,12.78 H 47.53 c -7.047,0 -12.78,-5.733 -12.78,-12.78 z m 0,89.234 c 0,-7.047 5.733,-12.78 12.78,-12.78 h 19.44 c 7.047,0 12.78,5.733 12.78,12.78 0,7.048 -5.733,12.781 -12.78,12.781 H 47.53 c -7.047,0.001 -12.78,-5.733 -12.78,-12.781 z m 0,89.236 c 0,-7.048 5.733,-12.781 12.78,-12.781 12.287,0.002 7.154,0.002 19.439,0 7.047,0 12.78,5.733 12.78,12.781 0,7.047 -5.733,12.78 -12.78,12.78 H 47.53 c -7.047,0 -12.78,-5.733 -12.78,-12.78 z m 90,61.53 h -37.5 c -12.406,0 -22.5,-10.094 -22.5,-22.5 v -11.25 h 2.22 c 15.318,0 27.78,-12.462 27.78,-27.78 0,-15.318 -12.462,-27.781 -27.78,-27.781 h -2.22 v -33.673 h 2.22 c 15.318,0 27.78,-12.463 27.78,-27.781 0,-15.318 -12.462,-27.78 -27.78,-27.78 H 64.75 V 283.78 h 2.22 c 15.318,0 27.78,-12.462 27.78,-27.78 0,-15.318 -12.462,-27.78 -27.78,-27.78 h -2.22 v -33.674 h 2.22 c 15.318,0 27.78,-12.462 27.78,-27.78 0,-15.318 -12.462,-27.781 -27.78,-27.781 h -2.22 v -33.673 h 2.22 c 15.318,0 27.78,-12.463 27.78,-27.781 0,-15.318 -12.462,-27.78 -27.78,-27.78 H 64.75 V 38.5 C 64.75,26.094 74.844,16 87.25,16 h 37.5 z m 307.5,-22.5 c 0,12.406 -10.094,22.5 -22.5,22.5 h -270 V 16 h 270 c 12.406,0 22.5,10.094 22.5,22.5 0,145.611 0,290.598 0,435 z m 45,-73.75 c 0,9.649 -7.851,17.5 -17.5,17.5 h -12.5 v -52.5 h 30 z m 0,-50 h -30 v -52.5 h 30 z m 0,-67.5 h -30 v -52.5 h 30 z m 0,-67.5 h -30 v -52.5 h 30 z m 0,-67.5 h -30 v -52.5 h 12.5 c 9.649,0 17.5,7.851 17.5,17.5 z"
           id="path21" /><path
           style="fill:#487fe9"
           d="m 219.058,233.355 c 30.141,45.996 67.54,75.096 93.607,91.408 13.454,8.421 30.752,8.28 44.064,-0.413 l 31.784,-20.754 c 11.169,-7.293 14.322,-22.314 7.028,-33.484 l -22.815,-34.941 c -7.31,-11.193 -22.289,-14.342 -33.483,-7.029 l -19.037,12.431 c -10.898,-5.96 -31.118,-19.314 -46.69,-42.846 -11.875,-17.943 -18.735,-38.07 -20.424,-59.888 l 19.059,-12.445 c 11.17,-7.294 14.322,-22.315 7.029,-33.483 L 256.364,56.97 C 249.07,45.799 234.049,42.647 222.881,49.941 l -31.83,20.784 c -13.244,8.647 -20.356,24.366 -18.118,40.044 6.325,44.287 21.844,85.532 46.125,122.586 z M 199.251,83.281 231.081,62.498 c 4.243,-2.772 9.952,-1.573 12.723,2.671 l 22.816,34.941 c 2.772,4.244 1.573,9.951 -2.671,12.723 l -22.712,14.83 c -2.225,1.453 -3.515,3.974 -3.392,6.627 1.214,26.197 9.006,50.324 23.16,71.713 18.908,28.572 43.387,43.57 56.295,49.968 2.38,1.182 5.207,1.012 7.431,-0.439 l 22.713,-14.831 c 4.246,-2.772 9.939,-1.591 12.723,2.671 l 22.815,34.941 c 2.772,4.244 1.574,9.952 -2.67,12.724 l -31.784,20.754 c -8.419,5.497 -19.372,5.599 -27.906,0.258 -24.796,-15.518 -60.367,-43.191 -89.018,-86.914 -23.066,-35.201 -37.811,-74.394 -43.823,-116.487 -1.418,-9.934 3.084,-19.891 11.47,-25.367 z"
           id="path23" /></g></g></g><g
     id="Layer_1"
     transform="translate(-19.75,-1)" /></svg>
