<?xml version="1.0" encoding="UTF-8" standalone="no"?>
<svg
   version="1.1"
   viewBox="0 0 510 510"
   xml:space="preserve"
   id="svg29"
   sodipodi:docname="ab5bb9f90f7a9570a34b2131128e2495.svg"
   width="510"
   height="510"
   xmlns:inkscape="http://www.inkscape.org/namespaces/inkscape"
   xmlns:sodipodi="http://sodipodi.sourceforge.net/DTD/sodipodi-0.dtd"
   xmlns="http://www.w3.org/2000/svg"
   xmlns:svg="http://www.w3.org/2000/svg"><defs
     id="defs33" /><sodipodi:namedview
     id="namedview31"
     pagecolor="#ffffff"
     bordercolor="#666666"
     borderopacity="1.0"
     inkscape:pageshadow="2"
     inkscape:pageopacity="0.0"
     inkscape:pagecheckerboard="0" /><g
     id="_x34_9_x2C__Mail_x2C__email_x2C__envelope_x2C__mails_x2C__communications_x2C__message"
     transform="translate(-1,-1)"><g
       id="g25"><polygon
         id="XMLID_701_"
         style="fill:#ffffff"
         points="209.59,53.5 256,8.5 302.41,53.5 256,69.167 " /><path
         id="XMLID_702_"
         style="fill:#ffffff"
         d="m 503.5,256 v 217.5 c 0,8.91 -3.88,16.91 -10.05,22.39 L 408,460.5 346.43,384.51 404.667,297.25 Z" /><path
         id="XMLID_703_"
         style="fill:#ffffff"
         d="M 165.57,384.51 112.667,457.167 18.55,495.89 C 12.38,490.41 8.5,482.41 8.5,473.5 V 256 l 86.167,37.5 z" /><polygon
         id="XMLID_704_"
         style="fill:#cddcf9"
         points="83.5,317.36 8.5,256 8.5,248.5 83.5,175.77 104,256 " /><polygon
         id="XMLID_705_"
         style="fill:#cddcf9"
         points="428.5,317.36 406.667,251.833 428.5,175.77 503.5,248.5 503.5,256 " /><path
         id="XMLID_706_"
         style="fill:#ffffff"
         d="m 398.5,53.5 c -4.591,0 -267.314,0 -285,0 -16.57,0 -30,13.43 -30,30 0,7.851 0,229.493 0,233.86 l 82.07,67.15 h 180.86 l 82.07,-67.15 c 0,-4.368 0,-226.009 0,-233.86 0,-16.57 -13.43,-30 -30,-30 z" /><path
         id="XMLID_707_"
         style="fill:#ffffff"
         d="m 292.1,343.35 c -21.35,-16.17 -50.85,-16.17 -72.2,0 -10.563,8.002 -190.912,144.633 -201.35,152.54 5.3,4.74 12.29,7.61 19.95,7.61 h 435 c 7.66,0 14.65,-2.87 19.95,-7.61 C 483.002,487.975 302.659,351.349 292.1,343.35 Z" /><rect
         id="XMLID_708_"
         x="128.5"
         y="98.5"
         style="fill:#cddcf9"
         width="255"
         height="52.5" /><path
         id="XMLID_709_"
         style="fill:#cddcf9"
         d="m 323.5,421 c 12.43,0 22.5,10.07 22.5,22.5 0,12.415 -10.06,22.5 -22.5,22.5 h -135 C 176.07,466 166,455.93 166,443.5 166,431.086 176.06,421 188.5,421 Z" /><g
         id="g23"><path
           style="fill:#487fe9"
           d="M 508.722,243.116 436,172.595 V 83.5 C 436,62.822 419.178,46 398.5,46 H 305.449 L 261.221,3.115 c -2.908,-2.82 -7.533,-2.82 -10.441,0 L 206.551,46 H 113.5 C 92.822,46 76,62.822 76,83.5 v 89.095 L 3.278,243.116 C 1.822,244.528 1,246.471 1,248.5 c 0,0.182 0,7.655 0,7.531 V 473.5 C 1,494.238 17.904,511 38.5,511 h 435 c 20.608,0 37.5,-16.777 37.5,-37.5 0,-8.417 0,-212.021 0,-225 0,-2.029 -0.822,-3.972 -2.278,-5.384 z M 256,18.946 283.901,46 H 228.099 Z M 91,83.5 C 91,71.094 101.094,61 113.5,61 h 285 c 12.406,0 22.5,10.094 22.5,22.5 v 230.309 l -74.748,61.156 -49.624,-37.594 c -23.923,-18.122 -57.335,-18.122 -81.258,0 L 165.747,374.965 91,313.809 Z M 16,251.674 76,193.49 V 301.536 L 16,252.446 Z M 16,473.5 V 271.826 L 153.448,384.282 19.6,485.685 C 17.326,482.17 16,477.988 16,473.5 Z M 473.5,496 h -435 c -2.235,0 -4.393,-0.332 -6.432,-0.942 18.63,-14.114 173.73,-131.616 192.362,-145.731 18.588,-14.084 44.553,-14.084 63.141,0 18.632,14.115 173.734,131.619 192.362,145.731 -2.04,0.61 -4.198,0.942 -6.433,0.942 z M 496,473.5 c 0,4.488 -1.326,8.67 -3.6,12.185 L 358.552,384.282 496,271.826 Z m 0,-221.054 -60,49.09 V 193.49 l 60,58.184 z"
           id="path11" /><path
           style="fill:#487fe9"
           d="m 128.5,158.5 h 255 c 4.143,0 7.5,-3.357 7.5,-7.5 V 98.5 c 0,-4.143 -3.357,-7.5 -7.5,-7.5 h -255 c -4.143,0 -7.5,3.357 -7.5,7.5 V 151 c 0,4.143 3.357,7.5 7.5,7.5 z M 136,106 h 240 v 37.5 H 136 Z"
           id="path13" /><path
           style="fill:#487fe9"
           d="m 128.5,203.5 h 255 c 4.143,0 7.5,-3.357 7.5,-7.5 0,-4.143 -3.357,-7.5 -7.5,-7.5 h -255 c -4.143,0 -7.5,3.357 -7.5,7.5 0,4.143 3.357,7.5 7.5,7.5 z"
           id="path15" /><path
           style="fill:#487fe9"
           d="m 391,241 c 0,-4.143 -3.357,-7.5 -7.5,-7.5 h -255 c -4.143,0 -7.5,3.357 -7.5,7.5 0,4.143 3.357,7.5 7.5,7.5 h 255 c 4.143,0 7.5,-3.357 7.5,-7.5 z"
           id="path17" /><path
           style="fill:#487fe9"
           d="M 331,278.5 H 181 c -4.143,0 -7.5,3.357 -7.5,7.5 0,4.143 3.357,7.5 7.5,7.5 h 150 c 4.143,0 7.5,-3.357 7.5,-7.5 0,-4.143 -3.357,-7.5 -7.5,-7.5 z"
           id="path19" /><path
           style="fill:#487fe9"
           d="m 158.5,443.5 c 0,16.542 13.458,30 30,30 h 135 c 16.542,0 30,-13.458 30,-30 0,-16.542 -13.458,-30 -30,-30 h -135 c -16.542,0 -30,13.458 -30,30 z m 180,0 c 0,8.272 -6.728,15 -15,15 h -135 c -8.271,0 -15,-6.728 -15,-15 0,-8.271 6.729,-15 15,-15 h 135 c 8.272,0 15,6.729 15,15 z"
           id="path21" /></g></g></g><g
     id="Layer_1"
     transform="translate(-1,-1)" /></svg>
