<?xml version="1.0" ?><svg xmlns="http://www.w3.org/2000/svg" xmlns:xlink="http://www.w3.org/1999/xlink" version="1.1" viewBox="0 0 512 512" style="enable-background:new 0 0 512 512;" xml:space="preserve"><g id="_x34_8_x2C__Flow_Chart_x2C__seo_and_web_x2C__infrastructure_x2C__data_x2C__management_x2C__organization"><g><g><path style="fill:#283954;" d="M406,398.5h-60V361c0-4.143-3.357-7.5-7.5-7.5h-75v-41.25h60c4.143,0,7.5-3.357,7.5-7.5v-97.5     c0-4.143-3.357-7.5-7.5-7.5h-135c-4.143,0-7.5,3.357-7.5,7.5v97.5c0,4.143,3.357,7.5,7.5,7.5h60v41.25h-90     c-4.143,0-7.5,3.357-7.5,7.5v37.5H91c-4.143,0-7.5,3.357-7.5,7.5v97.5c0,4.143,3.357,7.5,7.5,7.5h135c4.143,0,7.5-3.357,7.5-7.5     V406c0-4.143-3.357-7.5-7.5-7.5h-60v-30h165v30h-60c-4.143,0-7.5,3.357-7.5,7.5v97.5c0,4.143,3.357,7.5,7.5,7.5h135     c4.143,0,7.5-3.357,7.5-7.5V406C413.5,401.857,410.143,398.5,406,398.5z M316,214.75v22.5H196v-22.5H316z M196,252.25h120v45H196     V252.25z M98.5,496v-45h120v45H98.5z M218.5,436h-120v-22.5h120V436z M398.5,413.5V436h-120v-22.5H398.5z M278.5,496v-45h120v45     H278.5z"/><path style="fill:#283954;" d="M436,151H263.5v-45c0-4.143-3.357-7.5-7.5-7.5s-7.5,3.357-7.5,7.5v45H76     c-4.143,0-7.5,3.357-7.5,7.5v48.766c0,4.143,3.357,7.5,7.5,7.5s7.5-3.357,7.5-7.5V166h345v41.266c0,4.143,3.357,7.5,7.5,7.5     s7.5-3.357,7.5-7.5V158.5C443.5,154.357,440.143,151,436,151z"/></g><g><path style="fill:#3A98FF;" d="M143.5,199.75H8.5c-4.143,0-7.5,3.357-7.5,7.5v97.5c0,4.143,3.357,7.5,7.5,7.5h135     c4.143,0,7.5-3.357,7.5-7.5v-97.5C151,203.107,147.643,199.75,143.5,199.75z M136,214.75v22.5H16v-22.5H136z M16,297.25v-45h120     v45H16z"/><path style="fill:#3A98FF;" d="M503.5,199.75h-135c-4.143,0-7.5,3.357-7.5,7.5v97.5c0,4.143,3.357,7.5,7.5,7.5h135     c4.143,0,7.5-3.357,7.5-7.5v-97.5C511,203.107,507.643,199.75,503.5,199.75z M496,214.75v22.5H376v-22.5H496z M376,297.25v-45     h120v45H376z"/><path style="fill:#3A98FF;" d="M323.5,1h-135c-4.143,0-7.5,3.357-7.5,7.5V106c0,4.143,3.357,7.5,7.5,7.5h135     c4.143,0,7.5-3.357,7.5-7.5V8.5C331,4.357,327.643,1,323.5,1z M316,16v22.5H196V16H316z M196,98.5v-45h120v45H196z"/></g></g></g><g id="Layer_1"/></svg>