<?xml version="1.0" encoding="UTF-8" standalone="no"?>
<svg
   version="1.1"
   viewBox="0 0 509.99899 509.99954"
   xml:space="preserve"
   id="svg44"
   sodipodi:docname="380a654a13dbff0e1e5fc33d2e2dd806.svg"
   width="509.99899"
   height="509.99954"
   xmlns:inkscape="http://www.inkscape.org/namespaces/inkscape"
   xmlns:sodipodi="http://sodipodi.sourceforge.net/DTD/sodipodi-0.dtd"
   xmlns="http://www.w3.org/2000/svg"
   xmlns:svg="http://www.w3.org/2000/svg"><defs
     id="defs48" /><sodipodi:namedview
     id="namedview46"
     pagecolor="#ffffff"
     bordercolor="#666666"
     borderopacity="1.0"
     inkscape:pageshadow="2"
     inkscape:pageopacity="0.0"
     inkscape:pagecheckerboard="0" /><g
     id="_x30_7_x2C__Chat_x2C__forum_x2C__communication_x2C__conversation_x2C__chat_box_x2C__communications"
     transform="translate(-1,-1)"><g
       id="g40"><path
         id="XMLID_153_"
         style="fill:#ffffff"
         d="M 381,353.5 H 33.5 c -13.81,0 -25,11.19 -25,25 v 70 c 0,13.81 11.19,25 25,25 H 331 l 37.5,30 v -30 H 381 c 13.81,0 25,-11.19 25,-25 v -70 c 0,-13.81 -11.19,-25 -25,-25 z" /><path
         id="XMLID_154_"
         style="fill:#cddcf9"
         d="M 478.5,196 H 131 c -13.81,0 -25,11.19 -25,25 v 70 c 0,13.81 11.19,25 25,25 h 297.5 l 37.5,30 v -30 h 12.5 c 13.81,0 25,-11.19 25,-25 v -70 c 0,-13.81 -11.19,-25 -25,-25 z" /><path
         id="XMLID_155_"
         style="fill:#ffffff"
         d="M 381,8.5 H 33.5 c -13.81,0 -25,11.19 -25,25 v 70 c 0,13.81 11.19,25 25,25 H 331 l 37.5,30 v -30 H 381 c 13.81,0 25,-11.19 25,-25 v -70 c 0,-13.81 -11.19,-25 -25,-25 z" /><circle
         id="XMLID_157_"
         style="fill:#ffffff"
         cx="76"
         cy="413.5"
         r="30" /><circle
         id="XMLID_162_"
         style="fill:#ffffff"
         cx="76"
         cy="68.5"
         r="30" /><circle
         id="XMLID_163_"
         style="fill:#ffffff"
         cx="173.5"
         cy="256"
         r="30" /><g
         id="g38"><path
           style="fill:#487fe9"
           d="m 33.5,136 h 294.869 l 35.445,28.356 c 4.869,3.895 12.185,0.45 12.185,-5.856 V 136 h 5 c 17.921,0 32.5,-14.579 32.5,-32.5 v -70 C 413.5,15.579 398.921,1 381,1 H 33.5 C 15.579,1 1,15.579 1,33.5 v 70 C 1,121.421 15.579,136 33.5,136 Z M 16,33.5 C 16,23.851 23.851,16 33.5,16 H 381 c 9.649,0 17.5,7.851 17.5,17.5 v 70 c 0,9.649 -7.851,17.5 -17.5,17.5 h -12.5 c -4.143,0 -7.5,3.357 -7.5,7.5 v 14.396 L 335.685,122.644 C 334.355,121.58 332.703,121 331,121 H 33.5 C 23.851,121 16,113.149 16,103.5 Z"
           id="path8" /><path
           style="fill:#487fe9"
           d="M 76,106 C 96.678,106 113.5,89.178 113.5,68.5 113.5,47.822 96.678,31 76,31 55.322,31 38.5,47.822 38.5,68.5 38.5,89.178 55.322,106 76,106 Z M 76,46 C 88.406,46 98.5,56.094 98.5,68.5 98.5,80.906 88.406,91 76,91 63.594,91 53.5,80.906 53.5,68.5 53.5,56.094 63.594,46 76,46 Z"
           id="path10" /><path
           style="fill:#487fe9"
           d="m 143.5,46 h 225 c 4.143,0 7.5,-3.357 7.5,-7.5 0,-4.143 -3.357,-7.5 -7.5,-7.5 h -225 c -4.143,0 -7.5,3.357 -7.5,7.5 0,4.143 3.357,7.5 7.5,7.5 z"
           id="path12" /><path
           style="fill:#487fe9"
           d="m 143.5,76 h 225 c 4.143,0 7.5,-3.357 7.5,-7.5 0,-4.143 -3.357,-7.5 -7.5,-7.5 h -225 c -4.143,0 -7.5,3.357 -7.5,7.5 0,4.143 3.357,7.5 7.5,7.5 z"
           id="path14" /><path
           style="fill:#487fe9"
           d="M 143.5,106 H 256 c 4.143,0 7.5,-3.357 7.5,-7.5 0,-4.143 -3.357,-7.5 -7.5,-7.5 H 143.5 c -4.143,0 -7.5,3.357 -7.5,7.5 0,4.143 3.357,7.5 7.5,7.5 z"
           id="path16" /><path
           style="fill:#487fe9"
           d="M 381,346 H 33.5 C 15.579,346 1,360.579 1,378.5 v 70 C 1,466.421 15.579,481 33.5,481 h 294.869 l 35.445,28.356 c 2.258,1.806 5.346,2.149 7.934,0.903 2.599,-1.249 4.251,-3.877 4.251,-6.76 V 481 h 5 c 17.921,0 32.5,-14.579 32.5,-32.5 v -70 C 413.5,360.579 398.921,346 381,346 Z m 17.5,102.5 c 0,9.649 -7.851,17.5 -17.5,17.5 h -12.5 c -4.143,0 -7.5,3.357 -7.5,7.5 v 14.395 L 335.685,467.643 C 334.355,466.58 332.703,466 331,466 H 33.5 C 23.851,466 16,458.149 16,448.5 v -70 C 16,368.851 23.851,361 33.5,361 H 381 c 9.649,0 17.5,7.851 17.5,17.5 z"
           id="path18" /><path
           style="fill:#487fe9"
           d="m 76,376 c -20.678,0 -37.5,16.822 -37.5,37.5 0,20.678 16.822,37.5 37.5,37.5 20.678,0 37.5,-16.822 37.5,-37.5 C 113.5,392.822 96.678,376 76,376 Z m 0,60 C 63.594,436 53.5,425.906 53.5,413.5 53.5,401.094 63.594,391 76,391 c 12.406,0 22.5,10.094 22.5,22.5 0,12.406 -10.094,22.5 -22.5,22.5 z"
           id="path20" /><path
           style="fill:#487fe9"
           d="m 368.5,376 h -225 c -4.143,0 -7.5,3.357 -7.5,7.5 0,4.143 3.357,7.5 7.5,7.5 h 225 c 4.143,0 7.5,-3.357 7.5,-7.5 0,-4.143 -3.357,-7.5 -7.5,-7.5 z"
           id="path22" /><path
           style="fill:#487fe9"
           d="m 368.5,406 h -225 c -4.143,0 -7.5,3.357 -7.5,7.5 0,4.143 3.357,7.5 7.5,7.5 h 225 c 4.143,0 7.5,-3.357 7.5,-7.5 0,-4.143 -3.357,-7.5 -7.5,-7.5 z"
           id="path24" /><path
           style="fill:#487fe9"
           d="M 256,436 H 143.5 c -4.143,0 -7.5,3.357 -7.5,7.5 0,4.143 3.357,7.5 7.5,7.5 H 256 c 4.143,0 7.5,-3.357 7.5,-7.5 0,-4.143 -3.357,-7.5 -7.5,-7.5 z"
           id="path26" /><path
           style="fill:#487fe9"
           d="M 478.5,188.5 H 131 c -17.921,0 -32.5,14.579 -32.5,32.5 v 70 c 0,17.921 14.579,32.5 32.5,32.5 h 294.869 l 35.445,28.356 c 2.258,1.806 5.346,2.149 7.934,0.903 2.599,-1.249 4.251,-3.877 4.251,-6.76 v -22.5 h 5 c 17.921,0 32.5,-14.579 32.5,-32.5 v -70 C 511,203.079 496.421,188.5 478.5,188.5 Z M 496,291 c 0,9.649 -7.851,17.5 -17.5,17.5 H 466 c -4.143,0 -7.5,3.357 -7.5,7.5 v 14.395 l -25.315,-20.252 c -1.33,-1.064 -2.982,-1.644 -4.685,-1.644 H 131 c -9.649,0 -17.5,-7.851 -17.5,-17.5 v -70 c 0,-9.649 7.851,-17.5 17.5,-17.5 h 347.5 c 9.649,0 17.5,7.851 17.5,17.5 z"
           id="path28" /><path
           style="fill:#487fe9"
           d="m 173.5,218.5 c -20.678,0 -37.5,16.822 -37.5,37.5 0,20.678 16.822,37.5 37.5,37.5 20.678,0 37.5,-16.822 37.5,-37.5 0,-20.678 -16.822,-37.5 -37.5,-37.5 z m 0,60 c -12.406,0 -22.5,-10.094 -22.5,-22.5 0,-12.406 10.094,-22.5 22.5,-22.5 12.406,0 22.5,10.094 22.5,22.5 0,12.406 -10.094,22.5 -22.5,22.5 z"
           id="path30" /><path
           style="fill:#487fe9"
           d="M 466,218.5 H 241 c -4.143,0 -7.5,3.357 -7.5,7.5 0,4.143 3.357,7.5 7.5,7.5 h 225 c 4.143,0 7.5,-3.357 7.5,-7.5 0,-4.143 -3.357,-7.5 -7.5,-7.5 z"
           id="path32" /><path
           style="fill:#487fe9"
           d="M 466,248.5 H 241 c -4.143,0 -7.5,3.357 -7.5,7.5 0,4.143 3.357,7.5 7.5,7.5 h 225 c 4.143,0 7.5,-3.357 7.5,-7.5 0,-4.143 -3.357,-7.5 -7.5,-7.5 z"
           id="path34" /><path
           style="fill:#487fe9"
           d="M 353.5,278.5 H 241 c -4.143,0 -7.5,3.357 -7.5,7.5 0,4.143 3.357,7.5 7.5,7.5 h 112.5 c 4.143,0 7.5,-3.357 7.5,-7.5 0,-4.143 -3.357,-7.5 -7.5,-7.5 z"
           id="path36" /></g></g></g><g
     id="Layer_1"
     transform="translate(-1,-1)" /></svg>
